# xmcd
#
# Track frame offsets:
#        150
#        19403
#        36739
#        60444
#        81683
#        99763
#        119040
#        133187
#        150673
#        171981
#        189143
#        206107
#        223161
#        242027
#        263146
#        277392
#        295511
#
# Disc length: 4171 seconds
#
# Revision: 0
# Processed by: cddbd v1.5.2PL0 Copyright (c) Steve Scherf et al.
# Submitted via: CDGFix 3.7e
#
DISCID=0e104911
DTITLE=Various Artist - CBEP514501
DYEAR=2011
DGENRE=Karaoke
TTITLE0=Mcgraw, Tim - Felt Good On My Lips
TTITLE1=Niemann, Jerrod - What Do You Want
TTITLE2=Evans, Sara (W/ Hillary Scott) - A Little Bit Stronger
TTITLE3=Zac Brown Band - Colder Weather
TTITLE4=Aldean, Jason - Dirt Road Anthem
TTITLE5=Swift, Taylor - Mean
TTITLE6=Houser, Randy - A Man Like Me
TTITLE7=Young, Chris - Tomorrow
TTITLE8=Lady Antebellum - Hello World
TTITLE9=Rucker, Darius - This
TTITLE10=Turner, Josh - I Wouldn't Be  A Man
TTITLE11=The Band Perry - You Lie
TTITLE12=Corbin, Easton - I Can't Love You Back
TTITLE13=Paisley, Brad - This Is Country Music
TTITLE14=Lambert, Miranda - Heart Like Mine
TTITLE15=Chesney, Kenny - Somewhere With You
TTITLE16=Holy, Steve - Love Don't Run
EXTD=
EXTT0=
EXTT1=
EXTT2=
EXTT3=
EXTT4=
EXTT5=
EXTT6=
EXTT7=
EXTT8=
EXTT9=
EXTT10=
EXTT11=
EXTT12=
EXTT13=
EXTT14=
EXTT15=
EXTT16=
PLAYORDER=
